<svg xmlns="http://www.w3.org/2000/svg" width="139" height="74.504" viewBox="0 0 139 74.504">
  <g id="Group_634" data-name="Group 634" transform="translate(11956 136.504)">
    <g id="Group_633" data-name="Group 633">
      <g id="Group_632" data-name="Group 632">
        <g id="Group_631" data-name="Group 631">
          <rect id="Rectangle_14" data-name="Rectangle 14" width="139" height="74.504" rx="6" transform="translate(-11956 -136.504)" fill="#c4161c"/>
          <g id="Group_13" data-name="Group 13" transform="translate(-11942.656 -125.384)">
            <g id="Group_8" data-name="Group 8" transform="translate(28.729 22.823)">
              <path id="Path_5" data-name="Path 5" d="M115.7,105.638,123.433,92.8l1.226,12.838Z" transform="translate(-115.475 -92.4)" fill="#fff"/>
              <path id="Path_6" data-name="Path 6" d="M122.683,91.976l1.176,12.337H115.25l7.432-12.337m.175-.776L114.8,104.563h9.334L122.858,91.2Z" transform="translate(-114.8 -91.2)" fill="#fff"/>
            </g>
            <g id="Group_9" data-name="Group 9" transform="translate(0 0.275)">
              <path id="Path_7" data-name="Path 7" d="M.8,37.261,19.744,1.6h14.89l1.977,20.821L28.1,36.535l-.526-5.48H14.013l-3.178,6.181H.8ZM17.617,24.348h9.56L25.95,8.557h-.3Z" transform="translate(-0.6 -1.475)" fill="#fff"/>
              <path id="Path_8" data-name="Path 8" d="M33.909,1.35l1.977,20.671L27.6,35.785l-.475-4.98-.025-.225H13.338l-.075.125-3.1,6.056H.425L19.219,1.35h14.69M16.817,24.1h9.91l-.025-.275L25.5,8.282l-.025-.225H25l-.075.125-7.933,15.54-.175.375m17.317-23H19.069L0,37.011H10.31l3.178-6.181H26.852l.551,5.756L36.136,22.1l-2-21ZM17.217,23.848,25.15,8.307h.1l1.2,15.54Z" transform="translate(0 -1.1)" fill="#fff"/>
            </g>
            <g id="Group_10" data-name="Group 10" transform="translate(42.092)">
              <path id="Path_9" data-name="Path 9" d="M183.665,36.561c-2.678,0-4.8-.075-6.456-.225a15.039,15.039,0,0,1-4.479-1.026,6.135,6.135,0,0,1-3.028-2.528,8.535,8.535,0,0,1-1.1-4.655,23.7,23.7,0,0,1,.651-5.055l2.027-9.284a21.319,21.319,0,0,1,2.728-7.007A12.225,12.225,0,0,1,178.26,2.7,17.24,17.24,0,0,1,183.965.8,52.218,52.218,0,0,1,191.7.3c2.4,0,4.329.075,5.881.225a13.132,13.132,0,0,1,3.9.951,4.893,4.893,0,0,1,2.4,2.127,7.563,7.563,0,0,1,.8,3.779,22.507,22.507,0,0,1-.551,4.53l-.275,1.276H193.9l.25-1.226a1.72,1.72,0,0,1,.05-.325v-.35a2.315,2.315,0,0,0-1.351-2.427,11.666,11.666,0,0,0-4.1-.526,13.147,13.147,0,0,0-3.478.375,5.334,5.334,0,0,0-2.152,1.126,5.739,5.739,0,0,0-1.276,2,24.864,24.864,0,0,0-.926,3.4l-1.2,5.681a21.4,21.4,0,0,0-.7,4.229,2.843,2.843,0,0,0,1.2,2.578,8.187,8.187,0,0,0,4.154.776,11.644,11.644,0,0,0,5.03-.8c1.026-.551,1.752-1.827,2.2-3.779l.175-.951h9.96l-.15.9a30.944,30.944,0,0,1-1.927,6.056,10.512,10.512,0,0,1-3.729,4.054,13.035,13.035,0,0,1-5.205,2.152A48.035,48.035,0,0,1,183.665,36.561Z" transform="translate(-168.5 -0.225)" fill="#fff"/>
              <path id="Path_10" data-name="Path 10" d="M191.4.25c2.4,0,4.329.075,5.856.225a13.4,13.4,0,0,1,3.854.926,4.792,4.792,0,0,1,2.352,2.077,7.565,7.565,0,0,1,.8,3.729,22.289,22.289,0,0,1-.551,4.5l-.25,1.176h-9.71l.225-1.076v-.05a.6.6,0,0,1,.05-.25l.025-.05v-.35a2.436,2.436,0,0,0-1.426-2.553,11.99,11.99,0,0,0-4.154-.526,13.353,13.353,0,0,0-3.5.375,5.156,5.156,0,0,0-2.2,1.176,5.783,5.783,0,0,0-1.3,2.052,25.932,25.932,0,0,0-.926,3.4l-1.226,5.606a19.985,19.985,0,0,0-.7,4.279,3,3,0,0,0,1.251,2.678,8.123,8.123,0,0,0,4.229.776,11.583,11.583,0,0,0,5.105-.826c1.051-.576,1.827-1.877,2.252-3.879l.15-.851h9.71l-.125.751a30.105,30.105,0,0,1-1.927,6.031,9.975,9.975,0,0,1-3.7,4,12.573,12.573,0,0,1-5.155,2.127,44.332,44.332,0,0,1-7.057.45c-2.678,0-4.78-.075-6.431-.225a15.305,15.305,0,0,1-4.429-1,6.16,6.16,0,0,1-2.978-2.477,8.547,8.547,0,0,1-1.076-4.58,23.489,23.489,0,0,1,.651-5.03l2.027-9.284a21.975,21.975,0,0,1,2.7-6.982,12.148,12.148,0,0,1,4.2-4.029A17.123,17.123,0,0,1,183.665.7,61.331,61.331,0,0,1,191.4.25m0-.25a52.581,52.581,0,0,0-7.758.5,16.668,16.668,0,0,0-5.731,1.927,12.371,12.371,0,0,0-4.279,4.1,22.086,22.086,0,0,0-2.753,7.057l-2.027,9.284a22.738,22.738,0,0,0-.651,5.08,8.553,8.553,0,0,0,1.126,4.7,6.486,6.486,0,0,0,3.078,2.578,15.257,15.257,0,0,0,4.5,1.026q2.515.225,6.456.225a44.9,44.9,0,0,0,7.082-.45,12.937,12.937,0,0,0,5.255-2.177,10.4,10.4,0,0,0,3.779-4.1,28.664,28.664,0,0,0,1.927-6.081l.175-1.051h-10.21l-.2,1.051c-.425,1.952-1.151,3.178-2.127,3.7a11.386,11.386,0,0,1-4.98.8,7.955,7.955,0,0,1-4.1-.751,2.716,2.716,0,0,1-1.151-2.477,20.715,20.715,0,0,1,.7-4.2l1.226-5.606a22.059,22.059,0,0,1,.926-3.378A5.791,5.791,0,0,1,182.89,9.81a4.939,4.939,0,0,1,2.1-1.1,13,13,0,0,1,3.428-.35,12.19,12.19,0,0,1,4.054.5,2.226,2.226,0,0,1,1.276,2.327v.3a.98.98,0,0,0-.075.325l-.275,1.376h10.21l.325-1.426a22.129,22.129,0,0,0,.551-4.555,7.794,7.794,0,0,0-.826-3.854,5.092,5.092,0,0,0-2.452-2.177,13.112,13.112,0,0,0-3.929-.951C195.727.075,193.775,0,191.4,0Z" transform="translate(-168.2)" fill="#fff"/>
            </g>
            <g id="Group_11" data-name="Group 11" transform="translate(77.577 0.275)">
              <path id="Path_11" data-name="Path 11" d="M310.6,37.261,318.433,1.6h26.577l-1.627,7.608H326.466l-1.552,6.807h15.891l-1.4,6.406H323.538l-1.6,7.232H339.2l-1.677,7.608Z" transform="translate(-310.45 -1.475)" fill="#fff"/>
              <path id="Path_12" data-name="Path 12" d="M344.409,1.35l-1.577,7.357H325.916l-.05.2-1.476,6.557-.075.3h15.891l-1.326,6.156H322.988l-.05.2L321.411,29.1l-.075.3h17.242l-1.627,7.357H310.3l7.783-35.41h26.326m.325-.25H317.883L310,37.011h27.177l1.727-7.858H321.637l1.527-6.982h15.891l1.451-6.657H324.615l1.476-6.557h16.942l1.7-7.858Z" transform="translate(-310 -1.1)" fill="#fff"/>
            </g>
            <g id="Group_12" data-name="Group 12" transform="translate(0.225 40.59)">
              <path id="Path_13" data-name="Path 13" d="M.9,184.083l.976-5.205c.175-.976.3-1.827.4-2.5H4.228l-.15,1.251H4.1A3.128,3.128,0,0,1,6.731,176.2a1.649,1.649,0,0,1,1.827,1.451A3.165,3.165,0,0,1,11.21,176.2a1.816,1.816,0,0,1,1.9,2.077,8.971,8.971,0,0,1-.15,1.326l-.826,4.5h-2.2l.776-4.229a4.241,4.241,0,0,0,.1-.951c0-.526-.225-.926-.776-.926-.751,0-1.5,1.026-1.8,2.578l-.651,3.5H5.43l.8-4.254a3.914,3.914,0,0,0,.1-.876c0-.526-.175-.951-.726-.951-.776,0-1.577,1.1-1.877,2.6L3.1,184.083Z" transform="translate(-0.9 -172.696)" fill="#fff"/>
              <path id="Path_14" data-name="Path 14" d="M62.383,179.278a4.608,4.608,0,0,1-4.6,4.9,3.068,3.068,0,0,1-3.278-3.2,4.643,4.643,0,0,1,4.6-4.88A3.074,3.074,0,0,1,62.383,179.278Zm-5.531,1.652c0,.9.45,1.5,1.226,1.5,1.251,0,1.952-1.827,1.952-3.153,0-.7-.3-1.476-1.226-1.476C57.478,177.827,56.827,179.729,56.852,180.93Z" transform="translate(-41.087 -172.622)" fill="#fff"/>
              <path id="Path_15" data-name="Path 15" d="M88.7,184.083l.976-5.205c.2-.976.325-1.827.4-2.5H92.1l-.15,1.276h.025a3.291,3.291,0,0,1,2.728-1.451,1.854,1.854,0,0,1,1.977,2.1,12.017,12.017,0,0,1-.125,1.3l-.851,4.479H93.43l.8-4.279a4.963,4.963,0,0,0,.075-.876c0-.526-.2-.926-.751-.926-.751,0-1.6.926-1.927,2.628l-.651,3.428H88.7Z" transform="translate(-66.728 -172.696)" fill="#fff"/>
              <path id="Path_16" data-name="Path 16" d="M131.331,183.557a6.761,6.761,0,0,1-2.878.6A3.005,3.005,0,0,1,125.1,180.9a4.641,4.641,0,0,1,4.5-4.8c1.577,0,2.678.876,2.678,2.3,0,1.977-1.9,2.678-5,2.6a1.621,1.621,0,0,0,.225.8,1.768,1.768,0,0,0,1.476.6,4.983,4.983,0,0,0,2.177-.5Zm-2-5.806a1.958,1.958,0,0,0-1.827,1.6c1.777.025,2.653-.225,2.653-.926C130.18,178.027,129.855,177.752,129.329,177.752Z" transform="translate(-94.019 -172.622)" fill="#fff"/>
              <path id="Path_17" data-name="Path 17" d="M156.578,176.65l.475,3.353c.1.8.2,1.351.25,1.827h.025c.175-.45.35-.976.676-1.8l1.4-3.4h2.4l-2.753,5.556a15.684,15.684,0,0,1-2.978,4.429,5.124,5.124,0,0,1-2.477,1.3l-.5-1.952a3.846,3.846,0,0,0,1.3-.626,4.009,4.009,0,0,0,1.251-1.351.453.453,0,0,0,.05-.375l-1.527-7.007h2.4Z" transform="translate(-115.012 -172.996)" fill="#fff"/>
              <path id="Path_18" data-name="Path 18" d="M204.079,168.1l-.4,2.177h1.652L205,172h-1.677l-.526,2.628a4.742,4.742,0,0,0-.125.976.57.57,0,0,0,.651.651,5.228,5.228,0,0,0,.626-.025l-.275,1.777a4.788,4.788,0,0,1-1.351.175c-1.351,0-2-.7-2-1.652a8.139,8.139,0,0,1,.15-1.426l.6-3.078H200.1l.325-1.727h1l.325-1.627Z" transform="translate(-150.25 -166.624)" fill="#fff"/>
              <path id="Path_19" data-name="Path 19" d="M220.4,184.008l.876-4.6c.225-1.176.325-2.452.4-3.128h1.977l-.15,1.577h.05a2.869,2.869,0,0,1,2.477-1.752,2.429,2.429,0,0,1,.425.025l-.45,2.2a1.658,1.658,0,0,0-.375-.025c-1.451,0-2.127,1.3-2.427,2.8l-.526,2.878H220.4Z" transform="translate(-165.47 -172.622)" fill="#fff"/>
              <path id="Path_20" data-name="Path 20" d="M248.78,184.083c.025-.45.075-.976.1-1.527h-.05a2.919,2.919,0,0,1-2.6,1.7,2.38,2.38,0,0,1-2.327-2.678,5.216,5.216,0,0,1,5.53-5.38,9.317,9.317,0,0,1,2.553.375l-.826,4.054a18.324,18.324,0,0,0-.3,3.479H248.78Zm.676-6.131a4.288,4.288,0,0,0-.626-.075c-1.477,0-2.553,1.8-2.553,3.228,0,.751.3,1.276.926,1.276.676,0,1.527-.776,1.877-2.678Z" transform="translate(-183.089 -172.696)" fill="#fff"/>
              <path id="Path_21" data-name="Path 21" d="M278.5,184.083l.976-5.205c.2-.976.325-1.827.4-2.5H281.9l-.15,1.276h.025a3.291,3.291,0,0,1,2.728-1.451,1.854,1.854,0,0,1,1.977,2.1,12.017,12.017,0,0,1-.125,1.3l-.851,4.479H283.23l.8-4.279a4.965,4.965,0,0,0,.075-.876c0-.526-.2-.926-.751-.926-.751,0-1.6.926-1.927,2.628l-.651,3.428H278.5Z" transform="translate(-209.031 -172.696)" fill="#fff"/>
              <path id="Path_22" data-name="Path 22" d="M313.625,181.881a5,5,0,0,0,2.027.526c.651,0,.976-.325.976-.7s-.25-.651-.976-1A2.463,2.463,0,0,1,314,178.653c0-1.6,1.4-2.653,3.4-2.653a4.3,4.3,0,0,1,2,.4l-.526,1.6a3.735,3.735,0,0,0-1.552-.35c-.6,0-1,.275-1,.676,0,.325.325.576.951.876.826.425,1.727,1.051,1.727,2.127,0,1.777-1.5,2.728-3.529,2.728a4.36,4.36,0,0,1-2.377-.6Z" transform="translate(-234.972 -172.547)" fill="#fff"/>
              <path id="Path_23" data-name="Path 23" d="M341.4,173.586l1.126-6.006h-1l.325-1.727h1l.075-.4a4.016,4.016,0,0,1,1.3-2.5,3.408,3.408,0,0,1,2.2-.751,2.944,2.944,0,0,1,1.226.2l-.4,1.827a1.671,1.671,0,0,0-.751-.15c-.726,0-1.176.651-1.326,1.426l-.075.375h1.526l-.325,1.727h-1.527l-1.126,6.006H341.4Z" transform="translate(-256.19 -162.2)" fill="#fff"/>
              <path id="Path_24" data-name="Path 24" d="M368.231,183.557a6.761,6.761,0,0,1-2.878.6A3.005,3.005,0,0,1,362,180.9a4.641,4.641,0,0,1,4.5-4.8c1.577,0,2.678.876,2.678,2.3,0,1.977-1.9,2.678-5.005,2.6a1.621,1.621,0,0,0,.225.8,1.768,1.768,0,0,0,1.476.6,4.984,4.984,0,0,0,2.177-.5Zm-2-5.806a1.958,1.958,0,0,0-1.827,1.6c1.777.025,2.653-.225,2.653-.926C367.08,178.027,366.755,177.752,366.229,177.752Z" transform="translate(-271.635 -172.622)" fill="#fff"/>
              <path id="Path_25" data-name="Path 25" d="M392.7,184.008l.876-4.6c.225-1.176.325-2.452.4-3.128h1.977l-.15,1.577h.05a2.869,2.869,0,0,1,2.477-1.752,2.43,2.43,0,0,1,.425.025l-.45,2.2a1.659,1.659,0,0,0-.375-.025c-1.451,0-2.127,1.3-2.427,2.8l-.525,2.878H392.7Z" transform="translate(-294.652 -172.622)" fill="#fff"/>
            </g>
          </g>
        </g>
      </g>
    </g>
  </g>
</svg>
