<svg xmlns="http://www.w3.org/2000/svg" id="deep-learning" viewBox="0 0 53.48 64.43">
  <g id="ICONS">
    <g>
      <g>
        <path fill="#fff" d="m2.77,30.9l6.6,13.44c1.07,2.19,1.54,4.61,1.34,7.03l-1.01,12.51h28.99s0-13.05,0-13.05c0-1.17.97-2.13,2.16-2.13h5.56c1.2,0,2.16-.94,2.16-2.11v-7.93c0-1.18.96-2.13,2.14-2.13,1.63,0,2.67-1.71,1.91-3.11l-8.73-16.23C38.82-1.77,21.6-.51,15.19,1.68,5.82,4.87,2.2,11.11.92,16.57c-1.14,4.82-.35,9.87,1.85,14.33Z"></path>
        <path fill="#231f20" d="m.76,19.31c-.35,3.94.43,6.9,1.01,8.77.61,1.89,1.07,2.79,1,2.82-.03.01-.16-.2-.4-.64-.23-.44-.56-1.13-.91-2.07-.68-1.87-1.57-4.87-1.27-8.93.24-2.72,1.03-5.54,2.48-8.2,1.44-2.66,3.66-5.03,6.38-6.86C14.47.55,21.94-1.09,29.21.77c1.83.42,3.57,1.21,5.27,2.12.79.54,1.63,1.05,2.38,1.67l1.09.98.55.49c.17.17.32.37.49.56,1.32,1.46,2.45,3.13,3.34,4.92l.64,1.37c.22.45.43.91.57,1.4l.48,1.44.24.72.12.36.06.18s0-.02.03.05c1.9,3.52,3.84,7.1,5.8,10.75.99,1.84,1.98,3.69,2.98,5.55.6,1.26.01,2.88-1.21,3.5-.3.17-.63.26-.96.31-.4.03-.53.02-.72.07-.37.09-.7.32-.91.63-.15.22-.24.48-.25.75v1.1c0,.75,0,1.5,0,2.25,0,1.49,0,2.98,0,4.46.01.36-.04.93-.25,1.34-.2.43-.52.81-.91,1.07-.38.27-.84.43-1.3.49-.25.02-.44.02-.61.02h-.55c-1.46,0-2.91,0-4.36,0-.4,0-.61,0-.87.09-.25.08-.47.23-.64.43-.18.19-.3.43-.36.67-.03.13-.04.24-.04.4v.53c0,1.42,0,2.83-.01,4.23,0,2.98-.02,5.92-.02,8.79-11.02-.05-21.15-.09-30-.13.41-4.76.77-9,1.1-12.86.17-1.82-.05-3.58-.55-5.18-.25-.81-.58-1.54-.95-2.29-.36-.74-.71-1.47-1.06-2.19-6.94-14.4-6.64-14.54.51-.25.36.71.72,1.44,1.09,2.18.37.73.75,1.52,1.01,2.36.55,1.66.8,3.52.65,5.43-.27,3.6-.56,7.53-.89,11.96,8.25-.04,17.7-.08,27.97-.13,0-2.51-.02-5.07-.02-7.68,0-1.4,0-2.81,0-4.23v-.53c0-.2.02-.45.07-.66.11-.45.32-.87.63-1.2.3-.34.69-.6,1.13-.75.42-.17.95-.17,1.26-.16,1.44,0,2.89,0,4.36,0h.55c.19,0,.37,0,.48-.01.26-.03.52-.12.74-.28.22-.15.39-.36.5-.6.12-.26.14-.44.14-.82,0-1.48,0-2.97,0-4.46,0-.75,0-1.5,0-2.25,0-.39,0-.72,0-1.16.02-.48.18-.96.45-1.37.38-.57.98-.99,1.64-1.15.32-.08.73-.08.86-.09.19-.03.37-.08.54-.17.68-.35,1.01-1.25.68-1.92-.98-1.84-1.96-3.66-2.93-5.48-1.95-3.65-3.88-7.24-5.77-10.77-.02-.04-.08-.13-.13-.29l-.06-.17-.11-.35-.23-.7-.45-1.39c-.13-.47-.33-.91-.54-1.34l-.6-1.31c-.84-1.72-1.9-3.3-3.14-4.69-.15-.18-.29-.37-.45-.53l-.51-.47-1.02-.93c-.71-.59-1.49-1.07-2.24-1.59-1.6-.87-3.25-1.63-4.99-2.05-1.71-.51-3.49-.66-5.22-.77-1.74-.01-3.47.03-5.14.34-3.34.53-6.42,1.86-9.09,3.54-2.64,1.74-4.79,3.98-6.22,6.53-1.43,2.54-2.25,5.28-2.52,7.91Z"></path>
      </g>
      <g>
        <g>
          <polyline fill="#fff" points="19.62 22.12 15.24 11.72 31.5 17.44 40.58 27.25 29.73 33.16 31.43 18.3 15.83 35.87 29.73 33.16 10.26 27.25 31.5 17.44"></polyline>
          <path fill="#231f20" d="m23.04,21.03c11.17-5.03,11.31-4.73.24.52-3.54,1.68-7.47,3.54-11.88,5.62,5.46,1.62,11.58,3.44,18.31,5.44.04.15.09.36.14.56-.05.15-.11.35-.17.55-4.48.89-9.86,1.95-15.44,3.06,3.76-4.25,8.17-9.23,12.68-14.33,1.81-2.04,3.61-4.06,5.33-6-.64,5.52-1.25,10.79-1.82,15.67,3.38-1.82,6.46-3.47,9.31-5.01-3.24-3.55-5.98-6.54-8.49-9.3-6.23-2.25-11.12-4.02-15.47-5.59.23.57.39.95.53,1.31,4.65,11.34,4.34,11.47-.53.22-.31-.72-.62-1.45-1.1-2.56,4.8,1.65,10.19,3.5,17.06,5.86,2.86,3.06,5.98,6.38,9.67,10.33-3.8,2.09-7.89,4.34-12.39,6.81.49-4.38,1.02-9.11,1.57-14.05h0c-.23.27-.47.54-.71.81-.68.76-1.36,1.53-2.05,2.31-3.71,4.17-7.33,8.23-10.42,11.7,3.59-.68,7.05-1.34,9.93-1.89.06-.01.13-.02.17-.03-.05-.02-.1-.04-.14-.05-6.71-2.08-12.82-3.98-18.27-5.67,5.16-2.33,9.77-4.42,13.92-6.3Z"></path>
        </g>
        <g>
          <path fill="#fff" d="m13.37,27.26c0,1.71-1.4,3.11-3.11,3.11s-3.13-1.4-3.13-3.11,1.4-3.13,3.13-3.13,3.11,1.4,3.11,3.13Z"></path>
          <path fill="#231f20" d="m13.41,25.99c.26.85.05,1.28-.04,1.27-.13,0-.18-.41-.49-1.06-.41-.87-1.48-1.69-2.73-1.55-1.23.06-2.42,1.2-2.4,2.6-.03,1.4,1.17,2.54,2.39,2.61,1.24.14,2.32-.67,2.74-1.54.32-.65.36-1.06.49-1.06.09-.01.29.43.04,1.27-.18.56-.55,1.14-1.12,1.59-.56.45-1.35.76-2.2.75-.84,0-1.76-.33-2.44-.99-.69-.64-1.14-1.62-1.13-2.64,0-1.02.45-1.99,1.14-2.63.69-.65,1.6-.98,2.45-.98.85-.01,1.63.3,2.19.76.57.45.93,1.04,1.11,1.6Z"></path>
        </g>
        <g>
          <path fill="#fff" d="m18.95,35.88c0,1.71-1.4,3.11-3.11,3.11s-3.13-1.4-3.13-3.11,1.4-3.13,3.13-3.13,3.11,1.4,3.11,3.13Z"></path>
          <path fill="#231f20" d="m18.99,34.61c.26.85.05,1.28-.04,1.27-.13,0-.18-.41-.49-1.06-.41-.87-1.48-1.69-2.73-1.55-1.23.06-2.42,1.2-2.4,2.6-.03,1.4,1.17,2.54,2.39,2.61,1.24.14,2.32-.67,2.74-1.54.32-.65.36-1.06.49-1.06.09-.01.29.43.04,1.27-.18.56-.55,1.14-1.12,1.59-.56.45-1.35.76-2.2.75-.84,0-1.76-.33-2.44-.99-.69-.64-1.14-1.62-1.13-2.64,0-1.02.45-1.99,1.14-2.63.69-.65,1.6-.98,2.45-.98.85-.01,1.63.3,2.19.76.57.45.93,1.04,1.11,1.6Z"></path>
        </g>
        <g>
          <path fill="#fff" d="m22.74,22.13c0,1.71-1.4,3.11-3.11,3.11s-3.13-1.4-3.13-3.11,1.4-3.13,3.13-3.13,3.11,1.4,3.11,3.13Z"></path>
          <path fill="#231f20" d="m22.78,20.86c.26.85.05,1.28-.04,1.27-.13,0-.18-.41-.49-1.06-.41-.87-1.48-1.69-2.73-1.55-1.23.06-2.42,1.2-2.4,2.6-.03,1.4,1.17,2.54,2.39,2.61,1.24.14,2.32-.67,2.74-1.54.32-.65.36-1.06.49-1.06.09-.01.29.43.04,1.27-.18.56-.55,1.14-1.12,1.59-.56.45-1.35.76-2.2.75-.84,0-1.76-.33-2.44-.99-.69-.64-1.14-1.62-1.13-2.64,0-1.02.45-1.99,1.14-2.63.69-.65,1.6-.98,2.45-.98.85-.01,1.63.3,2.19.76.57.45.93,1.04,1.11,1.6Z"></path>
        </g>
        <g>
          <path fill="#fff" d="m18.35,11.73c0,1.71-1.4,3.11-3.11,3.11s-3.13-1.4-3.13-3.11,1.4-3.13,3.13-3.13,3.11,1.4,3.11,3.13Z"></path>
          <path fill="#231f20" d="m18.39,10.45c.26.85.05,1.28-.04,1.27-.13,0-.18-.41-.49-1.06-.41-.87-1.48-1.69-2.73-1.55-1.23.06-2.42,1.2-2.4,2.6-.03,1.4,1.17,2.54,2.39,2.61,1.24.14,2.32-.67,2.74-1.54.32-.65.36-1.06.49-1.06.09-.01.29.43.04,1.27-.18.56-.55,1.14-1.12,1.59-.56.45-1.35.76-2.2.75-.84,0-1.76-.33-2.44-.99-.69-.64-1.14-1.62-1.13-2.64,0-1.02.45-1.99,1.14-2.63.69-.65,1.6-.98,2.45-.98.85-.01,1.63.3,2.19.76.57.45.93,1.04,1.11,1.6Z"></path>
        </g>
        <g>
          <path fill="#fff" d="m34.93,17.45c0,1.71-1.4,3.11-3.11,3.11s-3.13-1.4-3.13-3.11,1.4-3.13,3.13-3.13,3.11,1.4,3.11,3.13Z"></path>
          <path fill="#231f20" d="m34.97,16.18c.26.85.05,1.28-.04,1.27-.13,0-.18-.41-.49-1.06-.41-.87-1.48-1.69-2.73-1.55-1.23.06-2.42,1.2-2.4,2.6-.03,1.4,1.17,2.54,2.39,2.61,1.24.14,2.32-.67,2.74-1.54.32-.65.36-1.06.49-1.06.09-.01.29.43.04,1.27-.18.56-.55,1.14-1.12,1.59-.56.45-1.35.76-2.2.75-.84,0-1.76-.33-2.44-.99-.69-.64-1.14-1.62-1.13-2.64,0-1.02.45-1.99,1.14-2.63.69-.65,1.6-.98,2.45-.98.85-.01,1.63.3,2.19.76.57.45.93,1.04,1.11,1.6Z"></path>
        </g>
        <g>
          <path fill="#fff" d="m43.7,27.26c0,1.71-1.4,3.11-3.11,3.11s-3.13-1.4-3.13-3.11,1.4-3.13,3.13-3.13,3.11,1.4,3.11,3.13Z"></path>
          <path fill="#231f20" d="m43.74,25.99c.26.85.05,1.28-.04,1.27-.13,0-.18-.41-.49-1.06-.41-.87-1.48-1.69-2.73-1.55-1.23.06-2.42,1.2-2.4,2.6-.03,1.4,1.17,2.54,2.39,2.61,1.24.14,2.32-.67,2.74-1.54.32-.65.36-1.06.49-1.06.09-.01.29.43.04,1.27-.18.56-.55,1.14-1.12,1.59-.56.45-1.35.76-2.2.75-.84,0-1.76-.33-2.44-.99-.69-.64-1.14-1.62-1.13-2.64,0-1.02.45-1.99,1.14-2.63.69-.65,1.6-.98,2.45-.98.85-.01,1.63.3,2.19.76.57.45.93,1.04,1.11,1.6Z"></path>
        </g>
        <g>
          <path fill="#fff" d="m32.85,32.76c0,1.71-1.4,3.11-3.11,3.11s-3.13-1.4-3.13-3.11,1.4-3.13,3.13-3.13,3.11,1.4,3.11,3.13Z"></path>
          <path fill="#231f20" d="m32.89,31.49c.26.85.05,1.28-.04,1.27-.13,0-.18-.41-.49-1.06-.41-.87-1.48-1.69-2.73-1.55-1.23.06-2.42,1.2-2.4,2.6-.03,1.4,1.17,2.54,2.39,2.61,1.24.14,2.32-.67,2.74-1.54.32-.65.36-1.06.49-1.06.09-.01.29.43.04,1.27-.18.56-.55,1.14-1.12,1.59-.56.45-1.35.76-2.2.75-.84,0-1.76-.33-2.44-.99-.69-.64-1.14-1.62-1.13-2.64,0-1.02.45-1.99,1.14-2.63.69-.65,1.6-.98,2.45-.98.85-.01,1.63.3,2.19.76.57.45.93,1.04,1.11,1.6Z"></path>
        </g>
      </g>
    </g>
  </g>
</svg>
